#!OML:ASF H:\Pregnant\Project 1\Capture day 1\Session 1\femalepreg.ASF
:FULLY-SPECIFIED
:DEGREES
604
root 3.16495 15.8649 -19.6737 -159.188 120.372 -182.73
lowerback -19.4559 -0.342236 3.11841
upperback -3.23973 -1.11043 1.81506
thorax 7.3563 -0.423753 -0.0928354
lowerneck -14.8825 -7.4361 -4.26855
upperneck 33.1882 -13.9808 13.7347
head 15.6651 -4.42758 4.08937
rclavicle 6.36111e-015 3.65764e-014
rhumerus -32.9166 16.551 -81.1982
rradius 32.6796
rwrist -23.2253
rhand -32.3345 -27.717
rfingers 7.12502
rthumb -5.57166 -57.6238
lclavicle 6.36111e-015 3.65764e-014
lhumerus -42.1477 -25.505 89.2595
lradius 27.1752
lwrist 49.5368
lhand -36.2597 0.777236
lfingers 7.12502
lthumb -9.36041 30.5494
rfemur -45.0289 35.5599 18.372
rtibia 39.7306
rfoot -11.0746 18.307
rtoes 25.2882
lfemur -51.7036 -20.6834 -4.31887
ltibia 48.8291
lfoot -10.1977 13.7148
ltoes -20.7865
605
root 3.22237 15.864 -19.6816 -159.139 121.853 -182.692
lowerback -19.6318 -0.589986 2.85153
upperback -3.16188 -1.42723 2.202
thorax 7.54653 -0.586378 0.394179
lowerneck -15.1544 -7.17415 -4.38238
upperneck 33.2917 -13.4602 13.3288
head 15.665 -4.27346 4.02717
rclavicle -4.83047e-014 -3.18055e-015
rhumerus -32.8963 16.9509 -79.9832
rradius 32.5965
rwrist -23.327
rhand -32.2332 -27.8322
rfingers 7.12502
rthumb -5.47388 -57.7415
lclavicle -4.83047e-014 -3.18055e-015
lhumerus -41.6563 -24.3853 89.0266
lradius 26.7913
lwrist 48.8111
lhand -36.2083 0.503514
lfingers 7.12502
lthumb -9.31083 30.2779
rfemur -45.0331 36.173 18.0505
rtibia 39.7987
rfoot -11.03 19.0219
rtoes 25.8626
lfemur -51.9915 -21.1431 -3.95153
ltibia 48.3407
lfoot -10.2245 13.3694
ltoes -21.0311
606
root 3.27848 15.863 -19.6885 -159.1 123.3 -182.67
lowerback -19.7792 -0.832408 2.68
upperback -3.0916 -1.75083 2.53009
thorax 7.71558 -0.750282 0.761306
lowerneck -15.4868 -6.90678 -4.47029
upperneck 33.4419 -12.9602 12.9721
head 15.7126 -4.11357 3.98026
rclavicle -2.90226e-014 -5.32743e-014
rhumerus -32.8386 17.4154 -78.8703
rradius 32.5139
rwrist -23.4752
rhand -32.2066 -27.9088
rfingers 7.12502
rthumb -5.44817 -57.8188
lclavicle -2.90226e-014 -5.32743e-014
lhumerus -41.1663 -23.2635 88.6893
lradius 26.4294
lwrist 48.0952
lhand -36.1535 0.246279
lfingers 7.12502
lthumb -9.25789 30.023
rfemur -45.055 36.7838 17.7275
rtibia 39.8637
rfoot -10.9658 19.6992
rtoes 26.4009
lfemur -52.299 -21.5493 -3.61271
ltibia 47.8782
lfoot -10.1925 12.9584
ltoes -21.3507
607
root 3.3339 15.8624 -19.6944 -159.07 124.707 -182.651
lowerback -19.8797 -1.04159 2.63856
upperback -3.03993 -2.0467 2.74998
thorax 7.83555 -0.896995 0.944432
lowerneck -15.8255 -6.6657 -4.50197
upperneck 33.6261 -12.5447 12.6927
head 15.7979 -3.96981 3.9438
rclavicle -1.08835e-013 2.06736e-014
rhumerus -32.785 17.7833 -77.8959
rradius 32.4073
rwrist -23.605
rhand -32.2106 -27.9289
rfingers 7.12502
rthumb -5.45209 -57.8388
lclavicle -1.08835e-013 2.06736e-014
lhumerus -40.7101 -22.2466 88.2263
lradius 26.0937
lwrist 47.4157
lhand -36.0778 0.0118072
lfingers 7.12502
lthumb -9.18484 29.7918
rfemur -45.0759 37.3915 17.4021
rtibia 39.9278
rfoot -10.8995 20.3248
rtoes 26.8595
lfemur -52.6042 -21.8933 -3.32899
ltibia 47.4349
lfoot -10.1248 12.4606
ltoes -21.7052
608
root 3.38899 15.862 -19.6998 -159.041 126.072 -182.627
lowerback -19.9616 -1.20907 2.66805
upperback -2.99207 -2.29617 2.89889
thorax 7.93786 -1.01873 1.02211
lowerneck -16.1292 -6.47628 -4.52093
upperneck 33.787 -12.2298 12.4848
head 15.8861 -3.85942 3.91725
rclavicle -6.52014e-014 -3.02153e-014
rhumerus -32.7374 18.0078 -76.9727
rradius 32.276
rwrist -23.6761
rhand -32.2579 -27.8983
rfingers 7.12502
rthumb -5.49776 -57.8069
lclavicle -6.52014e-014 -3.02153e-014
lhumerus -40.2335 -21.3474 87.7062
lradius 25.756
lwrist 46.7531
lhand -36.0091 -0.127464
lfingers 7.12502
lthumb -9.11854 29.6554
rfemur -45.0972 37.9687 17.0774
rtibia 39.9961
rfoot -10.819 20.9419
rtoes 27.3208
lfemur -52.9106 -22.1788 -3.10762
ltibia 47.0106
lfoot -10.0444 11.8476
ltoes -22.1096
609
root 3.44343 15.8611 -19.7046 -159.012 127.406 -182.606
lowerback -20.0272 -1.27718 2.79424
upperback -2.97574 -2.42069 2.90416
thorax 7.98635 -1.07598 0.921976
lowerneck -16.2886 -6.35081 -4.42154
upperneck 33.8734 -12.0747 12.3902
head 15.9291 -3.7925 3.8878
rclavicle -4.63168e-014 4.53229e-014
rhumerus -32.7963 17.831 -76.1483
rradius 32.1033
rwrist -23.6232
rhand -32.2944 -27.8293
rfingers 7.12502
rthumb -5.53297 -57.737
lclavicle -4.63168e-014 4.53229e-014
lhumerus -39.7997 -20.7933 87.1151
lradius 25.4382
lwrist 46.1527
lhand -35.9321 -0.165205
lfingers 7.12502
lthumb -9.04427 29.6209
rfemur -45.1351 38.5227 16.7553
rtibia 40.0761
rfoot -10.7099 21.5694
rtoes 27.8338
lfemur -53.226 -22.403 -2.93253
ltibia 46.6124
lfoot -9.98663 11.1149
ltoes -22.4622
610
root 3.49763 15.8596 -19.7082 -159.002 128.72 -182.597
lowerback -20.0716 -1.26403 2.99638
upperback -2.98131 -2.44301 2.80174
thorax 7.99064 -1.08082 0.689298
lowerneck -16.242 -6.27554 -4.24884
upperneck 33.8266 -12.0377 12.4086
head 15.8791 -3.76274 3.86876
rclavicle -1.13307e-014 5.32743e-014
rhumerus -32.9809 17.3055 -75.3949
rradius 31.9162
rwrist -23.4005
rhand -32.3292 -27.7485
rfingers 7.12502
rthumb -5.56656 -57.6554
lclavicle -1.13307e-014 5.32743e-014
lhumerus -39.3698 -20.4722 86.4474
lradius 25.105
lwrist 45.557
lhand -35.7823 -0.135971
lfingers 7.12502
lthumb -8.89976 29.6563
rfemur -45.1683 39.0678 16.4498
rtibia 40.167
rfoot -10.558 22.2096
rtoes 28.434
lfemur -53.5277 -22.5817 -2.79908
ltibia 46.2447
lfoot -9.95589 10.2779
ltoes -22.7745
611
root 3.55042 15.8569 -19.7101 -158.991 130.022 -182.596
lowerback -20.1028 -1.20037 3.23489
upperback -3.02426 -2.39722 2.62557
thorax 7.94231 -1.05155 0.374627
lowerneck -15.9217 -6.26119 -4.04586
upperneck 33.6393 -12.1141 12.53
head 15.7175 -3.77911 3.86503
rclavicle 4.24405e-014 3.97569e-015
rhumerus -33.3014 16.4669 -74.6833
rradius 31.7241
rwrist -22.976
rhand -32.334 -27.6666
rfingers 7.12502
rthumb -5.57126 -57.5734
lclavicle 4.24405e-014 3.97569e-015
lhumerus -38.9557 -20.2713 85.699
lradius 24.7547
lwrist 44.9397
lhand -35.5546 -0.0554562
lfingers 7.12502
lthumb -8.68002 29.7461
rfemur -45.2256 39.6161 16.1518
rtibia 40.2754
rfoot -10.3421 22.8693
rtoes 29.1654
lfemur -53.8336 -22.6817 -2.70685
ltibia 45.9173
lfoot -9.96372 9.30884
ltoes -23.1044
612
root 3.60216 15.854 -19.7102 -158.993 131.312 -182.617
lowerback -20.1238 -1.10436 3.50385
upperback -3.09235 -2.31038 2.4161
thorax 7.85966 -1.00205 0.018003
lowerneck -15.4152 -6.29417 -3.86771
upperneck 33.3636 -12.2636 12.733
head 15.4898 -3.83071 3.88652
rclavicle -2.127e-014 4.81059e-014
rhumerus -33.6742 15.5294 -73.9971
rradius 31.4929
rwrist -22.4964
rhand -32.348 -27.5668
rfingers 7.12502
rthumb -5.58477 -57.4733
lclavicle -2.127e-014 4.81059e-014
lhumerus -38.5243 -20.0786 84.8784
lradius 24.3908
lwrist 44.2908
lhand -35.2372 0.0862518
lfingers 7.12502
lthumb -8.37367 29.9003
rfemur -45.2979 40.1768 15.8689
rtibia 40.3944
rfoot -10.0929 23.5088
rtoes 29.9123
lfemur -54.133 -22.7019 -2.64679
ltibia 45.6278
lfoot -10.0121 8.21107
ltoes -23.4329
613
root 3.65308 15.8502 -19.7079 -159.005 132.584 -182.65
lowerback -20.1559 -1.03091 3.74379
upperback -3.15397 -2.25193 2.2525
thorax 7.79389 -0.967688 -0.280076
lowerneck -14.6994 -6.37627 -3.84621
upperneck 32.9574 -12.4437 13.0233
head 15.1767 -3.92135 3.96523
rclavicle -6.91771e-014 2.8625e-014
rhumerus -34.064 14.6002 -73.2453
rradius 31.2905
rwrist -21.9346
rhand -32.2748 -27.5213
rfingers 7.12502
rthumb -5.51407 -57.4296
lclavicle -6.91771e-014 2.8625e-014
lhumerus -38.0141 -19.6758 84.0137
lradius 23.9975
lwrist 43.5666
lhand -34.8447 0.186713
lfingers 7.12502
lthumb -7.99489 30.0155
rfemur -45.3756 40.7564 15.598
rtibia 40.5221
rfoot -9.80946 24.1159
rtoes 30.685
lfemur -54.4229 -22.6665 -2.62103
ltibia 45.3702
lfoot -10.0931 7.01984
ltoes -23.7351
614
root 3.70411 15.8457 -19.7038 -159.016 133.851 -182.699
lowerback -20.2167 -0.993637 3.96652
upperback -3.20275 -2.24538 2.15538
thorax 7.76015 -0.959154 -0.510647
lowerneck -13.9226 -6.45423 -3.97139
upperneck 32.5209 -12.5773 13.3434
head 14.8475 -4.01397 4.09131
rclavicle 1.67476e-014 -1.98785e-015
rhumerus -34.3713 13.7874 -72.4219
rradius 31.0612
rwrist -21.3385
rhand -32.1248 -27.5088
rfingers 7.12502
rthumb -5.36924 -57.4208
lclavicle 1.67476e-014 -1.98785e-015
lhumerus -37.4321 -18.9915 83.1226
lradius 23.6059
lwrist 42.8016
lhand -34.4831 0.367483
lfingers 7.12502
lthumb -7.64586 30.2093
rfemur -45.464 41.3145 15.3449
rtibia 40.6491
rfoot -9.48159 24.7379
rtoes 31.5168
lfemur -54.7074 -22.5627 -2.63168
ltibia 45.1273
lfoot -10.1937 5.75796
ltoes -24.0052
615
root 3.7555 15.8422 -19.6982 -159.033 135.097 -182.75
lowerback -20.2913 -0.986252 4.17864
upperback -3.2148 -2.28433 2.11766
thorax 7.77542 -0.972544 -0.683475
lowerneck -13.2532 -6.50344 -4.19914
upperneck 32.1206 -12.6413 13.6467
head 14.5615 -4.08759 4.24041
rclavicle 1.12313e-014 1.98785e-014
rhumerus -34.56 13.0378 -71.5094
rradius 30.8049
rwrist -20.729
rhand -31.9405 -27.5159
rfingers 7.12502
rthumb -5.19125 -57.4323
lclavicle 1.12313e-014 1.98785e-014
lhumerus -36.7426 -18.0558 82.2197
lradius 23.2281
lwrist 42.044
lhand -34.172 0.574413
lfingers 7.12502
lthumb -7.3456 30.4269
rfemur -45.5308 41.8431 15.1108
rtibia 40.7663
rfoot -9.13185 25.3577
rtoes 32.3551
lfemur -54.9646 -22.4185 -2.69195
ltibia 44.8742
lfoot -10.2908 4.45826
ltoes -24.2371
